{
    "asset" : {
        "generator" : "Khronos glTF Blender I/O v1.7.33",
        "version" : "2.0"
    },
    "scene" : 1,
    "scenes" : [
        {
            "name" : "Scene"
        },
        {
            "name" : "Scene.001",
            "nodes" : [
                0
            ]
        }
    ],
    "nodes" : [
        {
            "mesh" : 0,
            "name" : "ExtrudedStar",
            "rotation" : [
                0.7071068286895752,
                0,
                0,
                0.7071067094802856
            ],
            "scale" : [
                0.009999999776482582,
                0.009999999776482582,
                0.009999999776482582
            ],
            "translation" : [
                0,
                1.082484483718872,
                0
            ]
        }
    ],
    "materials" : [
        {
            "doubleSided" : true,
            "name" : "Material.001",
            "normalTexture" : {
                "index" : 0
            },
            "pbrMetallicRoughness" : {
                "baseColorTexture" : {
                    "index" : 1
                },
                "metallicRoughnessTexture" : {
                    "index" : 2
                }
            }
        }
    ],
    "meshes" : [
        {
            "name" : "Mesh",
            "primitives" : [
                {
                    "attributes" : {
                        "POSITION" : 0,
                        "NORMAL" : 1,
                        "TEXCOORD_0" : 2
                    },
                    "indices" : 3,
                    "material" : 0
                }
            ]
        }
    ],
    "textures" : [
        {
            "sampler" : 0,
            "source" : 0
        },
        {
            "sampler" : 0,
            "source" : 1
        },
        {
            "sampler" : 0,
            "source" : 2
        }
    ],
    "images" : [
        {
            "bufferView" : 4,
            "mimeType" : "image/png",
            "name" : "STAR_DefaultMaterial_Normal"
        },
        {
            "bufferView" : 5,
            "mimeType" : "image/png",
            "name" : "STAR_DefaultMaterial_BaseColor"
        },
        {
            "bufferView" : 6,
            "mimeType" : "image/png",
            "name" : "STAR_DefaultMaterial_Metallic.png-STAR_DefaultMaterial_Roughness.png"
        }
    ],
    "accessors" : [
        {
            "bufferView" : 0,
            "componentType" : 5126,
            "count" : 3960,
            "max" : [
                155.72296142578125,
                155.72535705566406,
                200.28330993652344
            ],
            "min" : [
                -155.72296142578125,
                -155.72535705566406,
                -199.71669006347656
            ],
            "type" : "VEC3"
        },
        {
            "bufferView" : 1,
            "componentType" : 5126,
            "count" : 3960,
            "type" : "VEC3"
        },
        {
            "bufferView" : 2,
            "componentType" : 5126,
            "count" : 3960,
            "type" : "VEC2"
        },
        {
            "bufferView" : 3,
            "componentType" : 5123,
            "count" : 21006,
            "type" : "SCALAR"
        }
    ],
    "bufferViews" : [
        {
            "buffer" : 0,
            "byteLength" : 47520,
            "byteOffset" : 0
        },
        {
            "buffer" : 0,
            "byteLength" : 47520,
            "byteOffset" : 47520
        },
        {
            "buffer" : 0,
            "byteLength" : 31680,
            "byteOffset" : 95040
        },
        {
            "buffer" : 0,
            "byteLength" : 42012,
            "byteOffset" : 126720
        },
        {
            "buffer" : 0,
            "byteLength" : 527545,
            "byteOffset" : 168732
        },
        {
            "buffer" : 0,
            "byteLength" : 5358,
            "byteOffset" : 696280
        },
        {
            "buffer" : 0,
            "byteLength" : 41527,
            "byteOffset" : 701640
        }
    ],
    "samplers" : [
        {
            "magFilter" : 9729,
            "minFilter" : 9987
        }
    ],
    "buffers" : [
        {
            "byteLength" : 743168,
            "uri" : "data:application/octet-stream;base64,"
        }
    ]
}
