{
    "asset" : {
        "generator" : "Khronos glTF Blender I/O v1.7.33",
        "version" : "2.0"
    },
    "scene" : 1,
    "scenes" : [
        {
            "name" : "Objects",
            "nodes" : [
                2,
                5
            ]
        },
        {
            "name" : "Scene - Template",
            "nodes" : [
                6,
                7,
                8,
                9,
                10,
                11,
                12
            ]
        }
    ],
    "nodes" : [
        {
            "mesh" : 0,
            "name" : "Suzanne",
            "translation" : [
                0,
                0.9804226756095886,
                0
            ]
        },
        {
            "children" : [
                0
            ],
            "name" : "Suzanne - Mesh"
        },
        {
            "children" : [
                1
            ],
            "name" : "Asset - Suzanne",
            "translation" : [
                -3.676776170730591,
                0,
                0
            ]
        },
        {
            "mesh" : 1,
            "name" : "Torus",
            "translation" : [
                0,
                0.25023341178894043,
                0
            ]
        },
        {
            "children" : [
                3
            ],
            "name" : "Torus - Mesh"
        },
        {
            "children" : [
                4
            ],
            "name" : "Asset - Torus"
        },
        {
            "mesh" : 2,
            "name" : "Plane"
        },
        {
            "mesh" : 3,
            "name" : "Aset_nature_rock_M_vixtai3dw_LOD3"
        },
        {
            "mesh" : 4,
            "name" : "Aset_nature_rock_M_vixtai3dw_LOD3.001"
        },
        {
            "mesh" : 5,
            "name" : "Cylinder"
        },
        {
            "mesh" : 6,
            "name" : "Icosphere"
        },
        {
            "mesh" : 7,
            "name" : "Sphere"
        },
        {
            "mesh" : 8,
            "name" : "Torus"
        }
    ],
    "materials" : [
        {
            "doubleSided" : true,
            "name" : "Material",
            "pbrMetallicRoughness" : {
                "baseColorFactor" : [
                    0.800000011920929,
                    0.800000011920929,
                    0.800000011920929,
                    1
                ],
                "metallicFactor" : 0,
                "roughnessFactor" : 0.5
            }
        },
        {
            "doubleSided" : true,
            "name" : "GREY",
            "pbrMetallicRoughness" : {
                "baseColorFactor" : [
                    0.5704748034477234,
                    0.5704748034477234,
                    0.5704748034477234,
                    1
                ],
                "metallicFactor" : 0,
                "roughnessFactor" : 0.5527864098548889
            }
        },
        {
            "doubleSided" : true,
            "name" : "BLACK",
            "pbrMetallicRoughness" : {
                "baseColorFactor" : [
                    0.04445555806159973,
                    0.04445555806159973,
                    0.04445555806159973,
                    1
                ],
                "metallicFactor" : 0,
                "roughnessFactor" : 0.5
            }
        }
    ],
    "meshes" : [
        {
            "name" : "Suzanne",
            "primitives" : [
                {
                    "attributes" : {
                        "POSITION" : 0,
                        "NORMAL" : 1,
                        "TEXCOORD_0" : 2
                    },
                    "indices" : 3
                }
            ]
        },
        {
            "name" : "Torus",
            "primitives" : [
                {
                    "attributes" : {
                        "POSITION" : 4,
                        "NORMAL" : 5,
                        "TEXCOORD_0" : 6
                    },
                    "indices" : 7
                }
            ]
        },
        {
            "name" : "Plane",
            "primitives" : [
                {
                    "attributes" : {
                        "POSITION" : 8,
                        "NORMAL" : 9,
                        "TEXCOORD_0" : 10
                    },
                    "indices" : 11,
                    "material" : 0
                }
            ]
        },
        {
            "name" : "Aset_nature_rock_M_vixtai3dw_LOD3",
            "primitives" : [
                {
                    "attributes" : {
                        "POSITION" : 12,
                        "NORMAL" : 13,
                        "TEXCOORD_0" : 14
                    },
                    "indices" : 15,
                    "material" : 1
                }
            ]
        },
        {
            "name" : "Aset_nature_rock_M_vixtai3dw_LOD3.001",
            "primitives" : [
                {
                    "attributes" : {
                        "POSITION" : 16,
                        "NORMAL" : 17,
                        "TEXCOORD_0" : 18
                    },
                    "indices" : 15,
                    "material" : 1
                }
            ]
        },
        {
            "extras" : {
                "Matcap" : "1"
            },
            "name" : "Cylinder",
            "primitives" : [
                {
                    "attributes" : {
                        "POSITION" : 19,
                        "NORMAL" : 20,
                        "TEXCOORD_0" : 21
                    },
                    "indices" : 22,
                    "material" : 2
                }
            ]
        },
        {
            "extras" : {
                "Matcap" : "1"
            },
            "name" : "Icosphere",
            "primitives" : [
                {
                    "attributes" : {
                        "POSITION" : 23,
                        "NORMAL" : 24,
                        "TEXCOORD_0" : 25
                    },
                    "indices" : 26,
                    "material" : 2
                }
            ]
        },
        {
            "extras" : {
                "Matcap" : "2"
            },
            "name" : "Sphere",
            "primitives" : [
                {
                    "attributes" : {
                        "POSITION" : 27,
                        "NORMAL" : 28,
                        "TEXCOORD_0" : 29
                    },
                    "indices" : 30,
                    "material" : 2
                }
            ]
        },
        {
            "extras" : {
                "Matcap" : "1"
            },
            "name" : "Torus",
            "primitives" : [
                {
                    "attributes" : {
                        "POSITION" : 31,
                        "NORMAL" : 32,
                        "TEXCOORD_0" : 33
                    },
                    "indices" : 34,
                    "material" : 2
                }
            ]
        }
    ],
    "accessors" : [
        {
            "bufferView" : 0,
            "componentType" : 5126,
            "count" : 556,
            "max" : [
                1.3671875,
                0.984375,
                0.8515625
            ],
            "min" : [
                -1.3671875,
                -0.984375,
                -0.8515625
            ],
            "type" : "VEC3"
        },
        {
            "bufferView" : 1,
            "componentType" : 5126,
            "count" : 556,
            "type" : "VEC3"
        },
        {
            "bufferView" : 2,
            "componentType" : 5126,
            "count" : 556,
            "type" : "VEC2"
        },
        {
            "bufferView" : 3,
            "componentType" : 5123,
            "count" : 2904,
            "type" : "SCALAR"
        },
        {
            "bufferView" : 4,
            "componentType" : 5126,
            "count" : 637,
            "max" : [
                1.25,
                0.25,
                1.25
            ],
            "min" : [
                -1.25,
                -0.25,
                -1.25
            ],
            "type" : "VEC3"
        },
        {
            "bufferView" : 5,
            "componentType" : 5126,
            "count" : 637,
            "type" : "VEC3"
        },
        {
            "bufferView" : 6,
            "componentType" : 5126,
            "count" : 637,
            "type" : "VEC2"
        },
        {
            "bufferView" : 7,
            "componentType" : 5123,
            "count" : 3456,
            "type" : "SCALAR"
        },
        {
            "bufferView" : 8,
            "componentType" : 5126,
            "count" : 640,
            "max" : [
                3.1586179733276367,
                0.8398751616477966,
                8.933995246887207
            ],
            "min" : [
                -7.792731285095215,
                -0.07500722259283066,
                -8.933995246887207
            ],
            "type" : "VEC3"
        },
        {
            "bufferView" : 9,
            "componentType" : 5126,
            "count" : 640,
            "type" : "VEC3"
        },
        {
            "bufferView" : 10,
            "componentType" : 5126,
            "count" : 640,
            "type" : "VEC2"
        },
        {
            "bufferView" : 11,
            "componentType" : 5123,
            "count" : 3534,
            "type" : "SCALAR"
        },
        {
            "bufferView" : 12,
            "componentType" : 5126,
            "count" : 1253,
            "max" : [
                3.3603291511535645,
                1.6633555889129639,
                5.4211626052856445
            ],
            "min" : [
                -2.0614585876464844,
                -2.44905948638916,
                -0.38207411766052246
            ],
            "type" : "VEC3"
        },
        {
            "bufferView" : 13,
            "componentType" : 5126,
            "count" : 1253,
            "type" : "VEC3"
        },
        {
            "bufferView" : 14,
            "componentType" : 5126,
            "count" : 1253,
            "type" : "VEC2"
        },
        {
            "bufferView" : 15,
            "componentType" : 5123,
            "count" : 5784,
            "type" : "SCALAR"
        },
        {
            "bufferView" : 16,
            "componentType" : 5126,
            "count" : 1253,
            "max" : [
                -4.288108825683594,
                2.114427089691162,
                0.5384306907653809
            ],
            "min" : [
                -7.906007289886475,
                -4.225246429443359,
                -5.166896820068359
            ],
            "type" : "VEC3"
        },
        {
            "bufferView" : 17,
            "componentType" : 5126,
            "count" : 1253,
            "type" : "VEC3"
        },
        {
            "bufferView" : 18,
            "componentType" : 5126,
            "count" : 1253,
            "type" : "VEC2"
        },
        {
            "bufferView" : 19,
            "componentType" : 5126,
            "count" : 94,
            "max" : [
                -0.8112083673477173,
                1.997157335281372,
                -0.21039563417434692
            ],
            "min" : [
                -1.7694597244262695,
                0.928928017616272,
                -1.1099979877471924
            ],
            "type" : "VEC3"
        },
        {
            "bufferView" : 20,
            "componentType" : 5126,
            "count" : 94,
            "type" : "VEC3"
        },
        {
            "bufferView" : 21,
            "componentType" : 5126,
            "count" : 94,
            "type" : "VEC2"
        },
        {
            "bufferView" : 22,
            "componentType" : 5123,
            "count" : 264,
            "type" : "SCALAR"
        },
        {
            "bufferView" : 23,
            "componentType" : 5126,
            "count" : 60,
            "max" : [
                -1.1490974426269531,
                3.3299851417541504,
                0.8309777975082397
            ],
            "min" : [
                -2.1272270679473877,
                2.2364001274108887,
                -0.09926930069923401
            ],
            "type" : "VEC3"
        },
        {
            "bufferView" : 24,
            "componentType" : 5126,
            "count" : 60,
            "type" : "VEC3"
        },
        {
            "bufferView" : 25,
            "componentType" : 5126,
            "count" : 60,
            "type" : "VEC2"
        },
        {
            "bufferView" : 26,
            "componentType" : 5123,
            "count" : 60,
            "type" : "SCALAR"
        },
        {
            "bufferView" : 27,
            "componentType" : 5126,
            "count" : 559,
            "max" : [
                -2.196643829345703,
                2.957728862762451,
                -0.4965710937976837
            ],
            "min" : [
                -2.945737600326538,
                2.208634376525879,
                -1.2456648349761963
            ],
            "type" : "VEC3"
        },
        {
            "bufferView" : 28,
            "componentType" : 5126,
            "count" : 559,
            "type" : "VEC3"
        },
        {
            "bufferView" : 29,
            "componentType" : 5126,
            "count" : 559,
            "type" : "VEC2"
        },
        {
            "bufferView" : 30,
            "componentType" : 5123,
            "count" : 2880,
            "type" : "SCALAR"
        },
        {
            "bufferView" : 31,
            "componentType" : 5126,
            "count" : 325,
            "max" : [
                -2.2885141372680664,
                1.939821720123291,
                1.2168265581130981
            ],
            "min" : [
                -3.416431427001953,
                0.9716370701789856,
                0.022740423679351807
            ],
            "type" : "VEC3"
        },
        {
            "bufferView" : 32,
            "componentType" : 5126,
            "count" : 325,
            "type" : "VEC3"
        },
        {
            "bufferView" : 33,
            "componentType" : 5126,
            "count" : 325,
            "type" : "VEC2"
        },
        {
            "bufferView" : 34,
            "componentType" : 5123,
            "count" : 1728,
            "type" : "SCALAR"
        }
    ],
    "bufferViews" : [
        {
            "buffer" : 0,
            "byteLength" : 6672,
            "byteOffset" : 0
        },
        {
            "buffer" : 0,
            "byteLength" : 6672,
            "byteOffset" : 6672
        },
        {
            "buffer" : 0,
            "byteLength" : 4448,
            "byteOffset" : 13344
        },
        {
            "buffer" : 0,
            "byteLength" : 5808,
            "byteOffset" : 17792
        },
        {
            "buffer" : 0,
            "byteLength" : 7644,
            "byteOffset" : 23600
        },
        {
            "buffer" : 0,
            "byteLength" : 7644,
            "byteOffset" : 31244
        },
        {
            "buffer" : 0,
            "byteLength" : 5096,
            "byteOffset" : 38888
        },
        {
            "buffer" : 0,
            "byteLength" : 6912,
            "byteOffset" : 43984
        },
        {
            "buffer" : 0,
            "byteLength" : 7680,
            "byteOffset" : 50896
        },
        {
            "buffer" : 0,
            "byteLength" : 7680,
            "byteOffset" : 58576
        },
        {
            "buffer" : 0,
            "byteLength" : 5120,
            "byteOffset" : 66256
        },
        {
            "buffer" : 0,
            "byteLength" : 7068,
            "byteOffset" : 71376
        },
        {
            "buffer" : 0,
            "byteLength" : 15036,
            "byteOffset" : 78444
        },
        {
            "buffer" : 0,
            "byteLength" : 15036,
            "byteOffset" : 93480
        },
        {
            "buffer" : 0,
            "byteLength" : 10024,
            "byteOffset" : 108516
        },
        {
            "buffer" : 0,
            "byteLength" : 11568,
            "byteOffset" : 118540
        },
        {
            "buffer" : 0,
            "byteLength" : 15036,
            "byteOffset" : 130108
        },
        {
            "buffer" : 0,
            "byteLength" : 15036,
            "byteOffset" : 145144
        },
        {
            "buffer" : 0,
            "byteLength" : 10024,
            "byteOffset" : 160180
        },
        {
            "buffer" : 0,
            "byteLength" : 1128,
            "byteOffset" : 170204
        },
        {
            "buffer" : 0,
            "byteLength" : 1128,
            "byteOffset" : 171332
        },
        {
            "buffer" : 0,
            "byteLength" : 752,
            "byteOffset" : 172460
        },
        {
            "buffer" : 0,
            "byteLength" : 528,
            "byteOffset" : 173212
        },
        {
            "buffer" : 0,
            "byteLength" : 720,
            "byteOffset" : 173740
        },
        {
            "buffer" : 0,
            "byteLength" : 720,
            "byteOffset" : 174460
        },
        {
            "buffer" : 0,
            "byteLength" : 480,
            "byteOffset" : 175180
        },
        {
            "buffer" : 0,
            "byteLength" : 120,
            "byteOffset" : 175660
        },
        {
            "buffer" : 0,
            "byteLength" : 6708,
            "byteOffset" : 175780
        },
        {
            "buffer" : 0,
            "byteLength" : 6708,
            "byteOffset" : 182488
        },
        {
            "buffer" : 0,
            "byteLength" : 4472,
            "byteOffset" : 189196
        },
        {
            "buffer" : 0,
            "byteLength" : 5760,
            "byteOffset" : 193668
        },
        {
            "buffer" : 0,
            "byteLength" : 3900,
            "byteOffset" : 199428
        },
        {
            "buffer" : 0,
            "byteLength" : 3900,
            "byteOffset" : 203328
        },
        {
            "buffer" : 0,
            "byteLength" : 2600,
            "byteOffset" : 207228
        },
        {
            "buffer" : 0,
            "byteLength" : 3456,
            "byteOffset" : 209828
        }
    ],
    "buffers" : [
        {
            "byteLength" : 213284,
            "uri" : "data:application/octet-stream;base64,"
        }
    ]
}
