{
    "asset" : {
        "generator" : "Khronos glTF Blender I/O v1.7.33",
        "version" : "2.0"
    },
    "scene" : 0,
    "scenes" : [
        {
            "name" : "Scene",
            "nodes" : [
                0
            ]
        }
    ],
    "nodes" : [
        {
            "mesh" : 0,
            "name" : "Couture.001",
            "rotation" : [
                0,
                0,
                -0.6532230973243713,
                0.7571654915809631
            ],
            "scale" : [
                0.49366867542266846,
                0.49366867542266846,
                0.49366867542266846
            ],
            "translation" : [
                1.0354156494140625,
                1.839223861694336,
                0.41097354888916016
            ]
        }
    ],
    "materials" : [
        {
            "doubleSided" : true,
            "name" : "Blanket",
            "pbrMetallicRoughness" : {
                "baseColorFactor" : [
                    0.49250322580337524,
                    0.02704235352575779,
                    0.013422409072518349,
                    1
                ],
                "metallicFactor" : 0,
                "roughnessFactor" : 0.6477272510528564
            }
        },
        {
            "doubleSided" : true,
            "name" : "Material.004",
            "pbrMetallicRoughness" : {
                "baseColorFactor" : [
                    0.5583406686782837,
                    0.6104958057403564,
                    0.08228270709514618,
                    1
                ],
                "metallicFactor" : 0,
                "roughnessFactor" : 0.5045454502105713
            }
        },
        {
            "doubleSided" : true,
            "name" : "Material.001",
            "pbrMetallicRoughness" : {
                "baseColorFactor" : [
                    0.020740289241075516,
                    0.020740289241075516,
                    0.020740289241075516,
                    1
                ],
                "metallicFactor" : 0,
                "roughnessFactor" : 0.5
            }
        }
    ],
    "meshes" : [
        {
            "name" : "Cube.001",
            "primitives" : [
                {
                    "attributes" : {
                        "POSITION" : 0,
                        "NORMAL" : 1,
                        "TEXCOORD_0" : 2
                    },
                    "indices" : 3,
                    "material" : 0
                },
                {
                    "attributes" : {
                        "POSITION" : 4,
                        "NORMAL" : 5,
                        "TEXCOORD_0" : 6
                    },
                    "indices" : 7,
                    "material" : 0
                },
                {
                    "attributes" : {
                        "POSITION" : 8,
                        "NORMAL" : 9,
                        "TEXCOORD_0" : 10
                    },
                    "indices" : 11,
                    "material" : 1
                },
                {
                    "attributes" : {
                        "POSITION" : 12,
                        "NORMAL" : 13,
                        "TEXCOORD_0" : 14
                    },
                    "indices" : 15,
                    "material" : 2
                }
            ]
        }
    ],
    "accessors" : [
        {
            "bufferView" : 0,
            "componentType" : 5126,
            "count" : 11733,
            "max" : [
                2.372483730316162,
                0.8108424544334412,
                2.8568310737609863
            ],
            "min" : [
                -0.8869287371635437,
                -0.3320491313934326,
                -2.849428653717041
            ],
            "type" : "VEC3"
        },
        {
            "bufferView" : 1,
            "componentType" : 5126,
            "count" : 11733,
            "type" : "VEC3"
        },
        {
            "bufferView" : 2,
            "componentType" : 5126,
            "count" : 11733,
            "type" : "VEC2"
        },
        {
            "bufferView" : 3,
            "componentType" : 5123,
            "count" : 50544,
            "type" : "SCALAR"
        },
        {
            "bufferView" : 4,
            "componentType" : 5126,
            "count" : 17828,
            "max" : [
                2.403524398803711,
                0.7386010885238647,
                2.8488237857818604
            ],
            "min" : [
                -0.8729978799819946,
                -1.3896695375442505,
                -2.8381130695343018
            ],
            "type" : "VEC3"
        },
        {
            "bufferView" : 5,
            "componentType" : 5126,
            "count" : 17828,
            "type" : "VEC3"
        },
        {
            "bufferView" : 6,
            "componentType" : 5126,
            "count" : 17828,
            "type" : "VEC2"
        },
        {
            "bufferView" : 7,
            "componentType" : 5123,
            "count" : 104448,
            "type" : "SCALAR"
        },
        {
            "bufferView" : 8,
            "componentType" : 5126,
            "count" : 5689,
            "max" : [
                1.0118324756622314,
                0.7894370555877686,
                1.5738227367401123
            ],
            "min" : [
                -0.3418959379196167,
                0.32534241676330566,
                -1.8613693714141846
            ],
            "type" : "VEC3"
        },
        {
            "bufferView" : 9,
            "componentType" : 5126,
            "count" : 5689,
            "type" : "VEC3"
        },
        {
            "bufferView" : 10,
            "componentType" : 5126,
            "count" : 5689,
            "type" : "VEC2"
        },
        {
            "bufferView" : 11,
            "componentType" : 5123,
            "count" : 27888,
            "type" : "SCALAR"
        },
        {
            "bufferView" : 12,
            "componentType" : 5126,
            "count" : 112,
            "max" : [
                -0.13338473439216614,
                -0.198501318693161,
                -1.5813546180725098
            ],
            "min" : [
                -0.9088318347930908,
                -0.35130685567855835,
                -2.3422274589538574
            ],
            "type" : "VEC3"
        },
        {
            "bufferView" : 13,
            "componentType" : 5126,
            "count" : 112,
            "type" : "VEC3"
        },
        {
            "bufferView" : 14,
            "componentType" : 5126,
            "count" : 112,
            "type" : "VEC2"
        },
        {
            "bufferView" : 15,
            "componentType" : 5123,
            "count" : 480,
            "type" : "SCALAR"
        }
    ],
    "bufferViews" : [
        {
            "buffer" : 0,
            "byteLength" : 140796,
            "byteOffset" : 0
        },
        {
            "buffer" : 0,
            "byteLength" : 140796,
            "byteOffset" : 140796
        },
        {
            "buffer" : 0,
            "byteLength" : 93864,
            "byteOffset" : 281592
        },
        {
            "buffer" : 0,
            "byteLength" : 101088,
            "byteOffset" : 375456
        },
        {
            "buffer" : 0,
            "byteLength" : 213936,
            "byteOffset" : 476544
        },
        {
            "buffer" : 0,
            "byteLength" : 213936,
            "byteOffset" : 690480
        },
        {
            "buffer" : 0,
            "byteLength" : 142624,
            "byteOffset" : 904416
        },
        {
            "buffer" : 0,
            "byteLength" : 208896,
            "byteOffset" : 1047040
        },
        {
            "buffer" : 0,
            "byteLength" : 68268,
            "byteOffset" : 1255936
        },
        {
            "buffer" : 0,
            "byteLength" : 68268,
            "byteOffset" : 1324204
        },
        {
            "buffer" : 0,
            "byteLength" : 45512,
            "byteOffset" : 1392472
        },
        {
            "buffer" : 0,
            "byteLength" : 55776,
            "byteOffset" : 1437984
        },
        {
            "buffer" : 0,
            "byteLength" : 1344,
            "byteOffset" : 1493760
        },
        {
            "buffer" : 0,
            "byteLength" : 1344,
            "byteOffset" : 1495104
        },
        {
            "buffer" : 0,
            "byteLength" : 896,
            "byteOffset" : 1496448
        },
        {
            "buffer" : 0,
            "byteLength" : 960,
            "byteOffset" : 1497344
        }
    ],
    "buffers" : [
        {
            "byteLength" : 1498304,
            "uri" : "data:application/octet-stream;base64,"
        }
    ]
}
