{
    "asset" : {
        "generator" : "Khronos glTF Blender I/O v1.7.33",
        "version" : "2.0"
    },
    "scene" : 0,
    "scenes" : [
        {
            "name" : "Scene",
            "nodes" : [
                0
            ]
        }
    ],
    "nodes" : [
        {
            "mesh" : 0,
            "name" : "Cylinder",
            "translation" : [
                0,
                0,
                -6.976381778717041
            ]
        }
    ],
    "meshes" : [
        {
            "name" : "Cylinder",
            "primitives" : [
                {
                    "attributes" : {
                        "POSITION" : 0,
                        "NORMAL" : 1,
                        "TEXCOORD_0" : 2
                    },
                    "indices" : 3
                }
            ]
        }
    ],
    "accessors" : [
        {
            "bufferView" : 0,
            "componentType" : 5126,
            "count" : 456,
            "max" : [
                1,
                1,
                14.380107879638672
            ],
            "min" : [
                -1,
                -1,
                -1
            ],
            "type" : "VEC3"
        },
        {
            "bufferView" : 1,
            "componentType" : 5126,
            "count" : 456,
            "type" : "VEC3"
        },
        {
            "bufferView" : 2,
            "componentType" : 5126,
            "count" : 456,
            "type" : "VEC2"
        },
        {
            "bufferView" : 3,
            "componentType" : 5123,
            "count" : 648,
            "type" : "SCALAR"
        }
    ],
    "bufferViews" : [
        {
            "buffer" : 0,
            "byteLength" : 5472,
            "byteOffset" : 0
        },
        {
            "buffer" : 0,
            "byteLength" : 5472,
            "byteOffset" : 5472
        },
        {
            "buffer" : 0,
            "byteLength" : 3648,
            "byteOffset" : 10944
        },
        {
            "buffer" : 0,
            "byteLength" : 1296,
            "byteOffset" : 14592
        }
    ],
    "buffers" : [
        {
            "byteLength" : 15888,
            "uri" : "data:application/octet-stream;base64,"
        }
    ]
}
