{
    "asset" : {
        "generator" : "Khronos glTF Blender I/O v1.7.33",
        "version" : "2.0"
    },
    "scene" : 0,
    "scenes" : [
        {
            "name" : "Scene",
            "nodes" : [
                0,
                1,
                2,
                3
            ]
        }
    ],
    "nodes" : [
        {
            "mesh" : 0,
            "name" : "Torus",
            "rotation" : [
                0.33392301201820374,
                0.23255404829978943,
                -0.07315469533205032,
                0.9105286598205566
            ],
            "translation" : [
                -0.8566880822181702,
                6.076639175415039,
                0.5717731714248657
            ]
        },
        {
            "mesh" : 1,
            "name" : "Extruded_Circle",
            "rotation" : [
                0.5332687497138977,
                0.0883803442120552,
                -0.4451996982097626,
                0.7138701677322388
            ],
            "translation" : [
                1.4851998090744019,
                2.7559664249420166,
                8.915185928344727
            ]
        },
        {
            "mesh" : 2,
            "name" : "Vase",
            "rotation" : [
                0.733782947063446,
                -0.25506481528282166,
                0.0016070185229182243,
                0.6296840310096741
            ],
            "translation" : [
                2.729447364807129,
                -1.2127633094787598,
                2.845858097076416
            ]
        },
        {
            "mesh" : 3,
            "name" : "Tubes",
            "rotation" : [
                0.7484298944473267,
                -0.1329057812690735,
                -0.37740933895111084,
                0.5289148688316345
            ],
            "translation" : [
                0.40708470344543457,
                -0.23371389508247375,
                -3.1922197341918945
            ]
        }
    ],
    "materials" : [
        {
            "doubleSided" : true,
            "name" : "MAIN",
            "normalTexture" : {
                "index" : 0
            },
            "pbrMetallicRoughness" : {
                "baseColorTexture" : {
                    "index" : 1
                },
                "metallicRoughnessTexture" : {
                    "index" : 2
                }
            }
        }
    ],
    "meshes" : [
        {
            "name" : "Torus",
            "primitives" : [
                {
                    "attributes" : {
                        "POSITION" : 0,
                        "NORMAL" : 1,
                        "TEXCOORD_0" : 2
                    },
                    "indices" : 3,
                    "material" : 0
                }
            ]
        },
        {
            "name" : "Extruded_Circle",
            "primitives" : [
                {
                    "attributes" : {
                        "POSITION" : 4,
                        "NORMAL" : 5,
                        "TEXCOORD_0" : 6
                    },
                    "indices" : 7,
                    "material" : 0
                }
            ]
        },
        {
            "name" : "Vase",
            "primitives" : [
                {
                    "attributes" : {
                        "POSITION" : 8,
                        "NORMAL" : 9,
                        "TEXCOORD_0" : 10
                    },
                    "indices" : 11,
                    "material" : 0
                }
            ]
        },
        {
            "name" : "Tubes",
            "primitives" : [
                {
                    "attributes" : {
                        "POSITION" : 12,
                        "NORMAL" : 13,
                        "TEXCOORD_0" : 14
                    },
                    "indices" : 15,
                    "material" : 0
                }
            ]
        }
    ],
    "textures" : [
        {
            "sampler" : 0,
            "source" : 0
        },
        {
            "sampler" : 0,
            "source" : 1
        },
        {
            "sampler" : 0,
            "source" : 2
        }
    ],
    "images" : [
        {
            "bufferView" : 4,
            "mimeType" : "image/jpeg",
            "name" : "SCENE_NORMAL"
        },
        {
            "bufferView" : 5,
            "mimeType" : "image/jpeg",
            "name" : "SCENE_BASE"
        },
        {
            "bufferView" : 6,
            "mimeType" : "image/png",
            "name" : "SCENE_METALLIC-SCENE_ROUGHNESS"
        }
    ],
    "accessors" : [
        {
            "bufferView" : 0,
            "componentType" : 5126,
            "count" : 646,
            "max" : [
                3.737952947616577,
                0.00669377064332366,
                0.8256163597106934
            ],
            "min" : [
                -3.737952947616577,
                -3.738612174987793,
                -0.8256163597106934
            ],
            "type" : "VEC3"
        },
        {
            "bufferView" : 1,
            "componentType" : 5126,
            "count" : 646,
            "type" : "VEC3"
        },
        {
            "bufferView" : 2,
            "componentType" : 5126,
            "count" : 646,
            "type" : "VEC2"
        },
        {
            "bufferView" : 3,
            "componentType" : 5123,
            "count" : 3264,
            "type" : "SCALAR"
        },
        {
            "bufferView" : 7,
            "componentType" : 5126,
            "count" : 917,
            "max" : [
                3.0239651203155518,
                3.0239455699920654,
                2.0156030654907227
            ],
            "min" : [
                -1.0083270072937012,
                -1.0083609819412231,
                -4.031206130981445
            ],
            "type" : "VEC3"
        },
        {
            "bufferView" : 8,
            "componentType" : 5126,
            "count" : 917,
            "type" : "VEC3"
        },
        {
            "bufferView" : 9,
            "componentType" : 5126,
            "count" : 917,
            "type" : "VEC2"
        },
        {
            "bufferView" : 10,
            "componentType" : 5123,
            "count" : 4512,
            "type" : "SCALAR"
        },
        {
            "bufferView" : 11,
            "componentType" : 5126,
            "count" : 3640,
            "max" : [
                2.5066614151000977,
                2.5066614151000977,
                2.086585283279419
            ],
            "min" : [
                -2.5066614151000977,
                -2.5066614151000977,
                -2.086585283279419
            ],
            "type" : "VEC3"
        },
        {
            "bufferView" : 12,
            "componentType" : 5126,
            "count" : 3640,
            "type" : "VEC3"
        },
        {
            "bufferView" : 13,
            "componentType" : 5126,
            "count" : 3640,
            "type" : "VEC2"
        },
        {
            "bufferView" : 14,
            "componentType" : 5123,
            "count" : 19968,
            "type" : "SCALAR"
        },
        {
            "bufferView" : 15,
            "componentType" : 5126,
            "count" : 5438,
            "max" : [
                1.6315711736679077,
                1.6315711736679077,
                1.9889134168624878
            ],
            "min" : [
                -1.6315711736679077,
                -1.6315711736679077,
                -1.8796972036361694
            ],
            "type" : "VEC3"
        },
        {
            "bufferView" : 16,
            "componentType" : 5126,
            "count" : 5438,
            "type" : "VEC3"
        },
        {
            "bufferView" : 17,
            "componentType" : 5126,
            "count" : 5438,
            "type" : "VEC2"
        },
        {
            "bufferView" : 18,
            "componentType" : 5123,
            "count" : 28608,
            "type" : "SCALAR"
        }
    ],
    "bufferViews" : [
        {
            "buffer" : 0,
            "byteLength" : 7752,
            "byteOffset" : 0
        },
        {
            "buffer" : 0,
            "byteLength" : 7752,
            "byteOffset" : 7752
        },
        {
            "buffer" : 0,
            "byteLength" : 5168,
            "byteOffset" : 15504
        },
        {
            "buffer" : 0,
            "byteLength" : 6528,
            "byteOffset" : 20672
        },
        {
            "buffer" : 0,
            "byteLength" : 421530,
            "byteOffset" : 27200
        },
        {
            "buffer" : 0,
            "byteLength" : 392409,
            "byteOffset" : 448732
        },
        {
            "buffer" : 0,
            "byteLength" : 1214764,
            "byteOffset" : 841144
        },
        {
            "buffer" : 0,
            "byteLength" : 11004,
            "byteOffset" : 2055908
        },
        {
            "buffer" : 0,
            "byteLength" : 11004,
            "byteOffset" : 2066912
        },
        {
            "buffer" : 0,
            "byteLength" : 7336,
            "byteOffset" : 2077916
        },
        {
            "buffer" : 0,
            "byteLength" : 9024,
            "byteOffset" : 2085252
        },
        {
            "buffer" : 0,
            "byteLength" : 43680,
            "byteOffset" : 2094276
        },
        {
            "buffer" : 0,
            "byteLength" : 43680,
            "byteOffset" : 2137956
        },
        {
            "buffer" : 0,
            "byteLength" : 29120,
            "byteOffset" : 2181636
        },
        {
            "buffer" : 0,
            "byteLength" : 39936,
            "byteOffset" : 2210756
        },
        {
            "buffer" : 0,
            "byteLength" : 65256,
            "byteOffset" : 2250692
        },
        {
            "buffer" : 0,
            "byteLength" : 65256,
            "byteOffset" : 2315948
        },
        {
            "buffer" : 0,
            "byteLength" : 43504,
            "byteOffset" : 2381204
        },
        {
            "buffer" : 0,
            "byteLength" : 57216,
            "byteOffset" : 2424708
        }
    ],
    "samplers" : [
        {
            "magFilter" : 9729,
            "minFilter" : 9987
        }
    ],
    "buffers" : [
        {
            "byteLength" : 2481924,
            "uri" : "data:application/octet-stream;base64,"
        }
    ]
}
