{
    "asset" : {
        "generator" : "Khronos glTF Blender I/O v1.7.33",
        "version" : "2.0"
    },
    "scene" : 1,
    "scenes" : [
        {
            "name" : "Objects"
        },
        {
            "name" : "Scene - Lumiere",
            "nodes" : [
                0
            ]
        }
    ],
    "nodes" : [
        {
            "mesh" : 0,
            "name" : "Extruded_Circle",
            "scale" : [
                0.616168200969696,
                0.616168200969696,
                0.616168200969696
            ],
            "translation" : [
                0,
                0.6746997833251953,
                0
            ]
        }
    ],
    "materials" : [
        {
            "doubleSided" : true,
            "name" : "default",
            "pbrMetallicRoughness" : {
                "baseColorFactor" : [
                    0.800000011920929,
                    0.800000011920929,
                    0.800000011920929,
                    1
                ],
                "metallicRoughnessTexture" : {
                    "index" : 0
                }
            }
        }
    ],
    "meshes" : [
        {
            "name" : "Extruded_Circle",
            "primitives" : [
                {
                    "attributes" : {
                        "POSITION" : 0,
                        "NORMAL" : 1,
                        "TEXCOORD_0" : 2
                    },
                    "indices" : 3,
                    "material" : 0
                }
            ]
        }
    ],
    "textures" : [
        {
            "sampler" : 0,
            "source" : 0
        }
    ],
    "images" : [
        {
            "bufferView" : 4,
            "mimeType" : "image/png",
            "name" : "TUYAU_default_Metallic-TUYAU_default_Roughness"
        }
    ],
    "accessors" : [
        {
            "bufferView" : 0,
            "componentType" : 5126,
            "count" : 873,
            "max" : [
                1.0417406558990479,
                1.3887301683425903,
                1.041733741760254
            ],
            "min" : [
                -0.34736356139183044,
                -0.6943652629852295,
                -0.34737518429756165
            ],
            "type" : "VEC3"
        },
        {
            "bufferView" : 1,
            "componentType" : 5126,
            "count" : 873,
            "type" : "VEC3"
        },
        {
            "bufferView" : 2,
            "componentType" : 5126,
            "count" : 873,
            "type" : "VEC2"
        },
        {
            "bufferView" : 3,
            "componentType" : 5123,
            "count" : 4512,
            "type" : "SCALAR"
        }
    ],
    "bufferViews" : [
        {
            "buffer" : 0,
            "byteLength" : 10476,
            "byteOffset" : 0
        },
        {
            "buffer" : 0,
            "byteLength" : 10476,
            "byteOffset" : 10476
        },
        {
            "buffer" : 0,
            "byteLength" : 6984,
            "byteOffset" : 20952
        },
        {
            "buffer" : 0,
            "byteLength" : 9024,
            "byteOffset" : 27936
        },
        {
            "buffer" : 0,
            "byteLength" : 862104,
            "byteOffset" : 36960
        }
    ],
    "samplers" : [
        {
            "magFilter" : 9729,
            "minFilter" : 9987
        }
    ],
    "buffers" : [
        {
            "byteLength" : 899064,
            "uri" : "data:application/octet-stream;base64,"
        }
    ]
}
